<svg width="11" height="11" viewBox="0 0 11 11" fill="none" xmlns="http://www.w3.org/2000/svg">
<path d="M0.186577 0.183613C0.128183 0.241868 0.0818548 0.311071 0.0502444 0.387261C0.018634 0.46345 0.00236336 0.545128 0.00236336 0.627616C0.00236336 0.710105 0.018634 0.791783 0.0502444 0.867972C0.0818548 0.944161 0.128183 1.01337 0.186577 1.07162L4.61338 5.50007L0.184069 9.92852C0.0663292 10.0461 0.000117748 10.2057 1.56683e-07 10.3721C-5.80685e-05 10.4545 0.016112 10.5361 0.047587 10.6122C0.079062 10.6884 0.125225 10.7576 0.183441 10.8159C0.241658 10.8742 0.310787 10.9205 0.386882 10.9521C0.462977 10.9837 0.544547 10.9999 0.626936 11C0.793327 11.0001 0.95295 10.9341 1.07069 10.8165L5.5 6.38682L9.92806 10.8165C10.0458 10.9341 10.2054 11.0001 10.3718 11C10.5382 10.9999 10.6977 10.9337 10.8153 10.8159C10.9329 10.6981 10.9989 10.5385 10.9987 10.3721C10.9986 10.2057 10.9324 10.0461 10.8147 9.92852L6.38788 5.50007L10.8159 1.07162C10.9337 0.954029 10.9999 0.794475 11 0.628059C11.0001 0.461644 10.9341 0.301997 10.8166 0.184241C10.699 0.0664837 10.5395 0.000262423 10.3731 0.000144814C10.2067 2.72059e-05 10.0471 0.0660226 9.92931 0.183613L5.50125 4.61332L1.07194 0.183613C0.954358 0.0660459 0.794899 0 0.628633 0C0.462367 0 0.304162 0.0660459 0.186577 0.183613Z" fill="white"/>
</svg>
