<svg width="23" height="24" viewBox="0 0 23 24" fill="none" xmlns="http://www.w3.org/2000/svg">
<path d="M11.5 21.6426C8.83126 21.6426 6.27182 20.5824 4.38474 18.6953C2.49765 16.8083 1.4375 14.2488 1.4375 11.5801C1.4375 8.91134 2.49765 6.3519 4.38474 4.46482C6.27182 2.57773 8.83126 1.51758 11.5 1.51758C14.1687 1.51758 16.7282 2.57773 18.6153 4.46482C20.5023 6.3519 21.5625 8.91134 21.5625 11.5801C21.5625 14.2488 20.5023 16.8083 18.6153 18.6953C16.7282 20.5824 14.1687 21.6426 11.5 21.6426ZM11.5 23.0801C14.55 23.0801 17.4751 21.8685 19.6317 19.7118C21.7884 17.5551 23 14.6301 23 11.5801C23 8.53009 21.7884 5.60502 19.6317 3.44835C17.4751 1.29168 14.55 0.0800781 11.5 0.0800781C8.45001 0.0800781 5.52494 1.29168 3.36827 3.44835C1.2116 5.60502 0 8.53009 0 11.5801C0 14.6301 1.2116 17.5551 3.36827 19.7118C5.52494 21.8685 8.45001 23.0801 11.5 23.0801Z" fill="white"/>
<path d="M7.55402 8.39745C7.55205 8.44388 7.5596 8.49021 7.5762 8.53361C7.5928 8.577 7.6181 8.61655 7.65055 8.6498C7.683 8.68306 7.72191 8.70933 7.76489 8.72699C7.80786 8.74466 7.854 8.75334 7.90045 8.75252H9.08639C9.28477 8.75252 9.44289 8.59008 9.46877 8.39314C9.59814 7.45014 10.245 6.76302 11.3979 6.76302C12.384 6.76302 13.2868 7.25608 13.2868 8.44202C13.2868 9.35483 12.7491 9.77458 11.8996 10.4128C10.9321 11.1158 10.166 11.9366 10.2206 13.2691L10.2249 13.5811C10.2264 13.6754 10.2649 13.7653 10.3322 13.8315C10.3994 13.8976 10.4899 13.9347 10.5843 13.9347H11.7501C11.8454 13.9347 11.9368 13.8968 12.0042 13.8294C12.0716 13.762 12.1095 13.6706 12.1095 13.5753V13.4244C12.1095 12.3923 12.5019 12.0918 13.5613 11.2883C14.4368 10.6227 15.3496 9.88383 15.3496 8.33277C15.3496 6.1607 13.5153 5.11133 11.5071 5.11133C9.68583 5.11133 7.69058 5.95945 7.55402 8.39745ZM9.7922 16.6818C9.7922 17.448 10.4031 18.0143 11.2441 18.0143C12.1195 18.0143 12.7218 17.448 12.7218 16.6818C12.7218 15.8883 12.1181 15.3305 11.2426 15.3305C10.4031 15.3305 9.7922 15.8883 9.7922 16.6818Z" fill="white"/>
</svg>
