<svg width="6" height="10" viewBox="0 0 6 10" fill="none" xmlns="http://www.w3.org/2000/svg">
<path fill-rule="evenodd" clip-rule="evenodd" d="M0.659888 0.112982C0.623614 0.148705 0.594835 0.191143 0.575199 0.237865C0.555562 0.284586 0.545455 0.334673 0.545455 0.385258C0.545455 0.435842 0.555562 0.485929 0.575199 0.532651C0.594835 0.579373 0.623614 0.62181 0.659888 0.657534L5.05902 5.0001L0.659888 9.34267C0.586748 9.41488 0.545659 9.51282 0.545659 9.61494C0.545659 9.71707 0.586748 9.81501 0.659888 9.88722C0.733027 9.95943 0.832226 10 0.935661 10C1.0391 10 1.1383 9.95943 1.21144 9.88722L5.88557 5.27238C5.92184 5.23665 5.95062 5.19422 5.97026 5.14749C5.98989 5.10077 6 5.05069 6 5.0001C6 4.94952 5.98989 4.89943 5.97026 4.85271C5.95062 4.80599 5.92184 4.76355 5.88557 4.72783L1.21144 0.112982C1.17525 0.0771684 1.13227 0.0487541 1.08495 0.0293668C1.03763 0.00997949 0.986896 0 0.935661 0C0.884428 0 0.833697 0.00997949 0.786375 0.0293668C0.739053 0.0487541 0.69607 0.0771684 0.659888 0.112982Z" fill="#5AE9C8"/>
</svg>
