<svg width="20" height="17" viewBox="0 0 20 17" fill="none" xmlns="http://www.w3.org/2000/svg">
<path d="M5 0C7.7625 0 10 2.17614 10 4.86066C10 2.17614 12.2375 0 15 0C17.7625 0 20 2.17614 20 4.86066C20 8.90666 15.9575 10.3339 10.49 16.7742C10.4298 16.845 10.3548 16.9018 10.2701 16.9408C10.1855 16.9798 10.0933 17 10 17C9.90668 17 9.81449 16.9798 9.72986 16.9408C9.64523 16.9018 9.57019 16.845 9.51 16.7742C4.0425 10.3339 0 8.90666 0 4.86066C0 2.17614 2.2375 0 5 0Z" fill="white" fill-opacity="0.15"/>
</svg>
