<svg width="23" height="24" viewBox="0 0 23 24" fill="none" xmlns="http://www.w3.org/2000/svg">
<path d="M11.4999 6.91098C10.8871 6.91098 10.2803 7.03168 9.71415 7.26619C9.148 7.5007 8.63358 7.84443 8.20026 8.27774C7.76694 8.71106 7.42322 9.22548 7.18871 9.79164C6.9542 10.3578 6.8335 10.9646 6.8335 11.5774C6.8335 12.1902 6.9542 12.797 7.18871 13.3632C7.42322 13.9293 7.76694 14.4437 8.20026 14.8771C8.63358 15.3104 9.148 15.6541 9.71415 15.8886C10.2803 16.1231 10.8871 16.2438 11.4999 16.2438C12.7375 16.2438 13.9244 15.7522 14.7996 14.8771C15.6747 14.0019 16.1663 12.815 16.1663 11.5774C16.1663 10.3398 15.6747 9.15286 14.7996 8.27774C13.9244 7.40262 12.7375 6.91098 11.4999 6.91098ZM8.27109 11.5774C8.27109 10.7211 8.61127 9.89979 9.21679 9.29427C9.82231 8.68875 10.6436 8.34857 11.4999 8.34857C12.3563 8.34857 13.1775 8.68875 13.783 9.29427C14.3886 9.89979 14.7287 10.7211 14.7287 11.5774C14.7287 12.4337 14.3886 13.255 13.783 13.8605C13.1775 14.466 12.3563 14.8062 11.4999 14.8062C10.6436 14.8062 9.82231 14.466 9.21679 13.8605C8.61127 13.255 8.27109 12.4337 8.27109 11.5774Z" fill="white"/>
<path d="M14.0819 2.00736C13.3243 -0.565929 9.6757 -0.565929 8.91809 2.00736L8.78296 2.46595C8.73005 2.64558 8.63761 2.81109 8.51242 2.95036C8.38724 3.08962 8.23247 3.19911 8.05948 3.27079C7.88648 3.34247 7.69963 3.37452 7.51264 3.36461C7.32564 3.3547 7.14323 3.30306 6.97878 3.21349L6.559 2.98348C4.20136 1.70115 1.62376 4.28019 2.90753 6.6364L3.1361 7.05617C3.22567 7.22062 3.27731 7.40303 3.28722 7.59003C3.29713 7.77703 3.26507 7.96387 3.19339 8.13687C3.12171 8.30987 3.01223 8.46463 2.87296 8.58982C2.7337 8.715 2.56819 8.80744 2.38856 8.86035L1.92996 8.99548C-0.643321 9.75309 -0.643321 13.4017 1.92996 14.1593L2.38856 14.2944C2.56819 14.3473 2.7337 14.4398 2.87296 14.565C3.01223 14.6902 3.12171 14.8449 3.19339 15.0179C3.26507 15.1909 3.29713 15.3778 3.28722 15.5648C3.27731 15.7518 3.22567 15.9342 3.1361 16.0986L2.90609 16.5184C1.62376 18.876 4.20136 21.4551 6.559 20.1699L6.97878 19.9413C7.14323 19.8517 7.32564 19.8001 7.51264 19.7902C7.69963 19.7803 7.88648 19.8123 8.05948 19.884C8.23247 19.9557 8.38724 20.0652 8.51242 20.2044C8.63761 20.3437 8.73005 20.5092 8.78296 20.6888L8.91809 21.1474C9.6757 23.7207 13.3243 23.7207 14.0819 21.1474L14.217 20.6888C14.27 20.5092 14.3624 20.3437 14.4876 20.2044C14.6128 20.0652 14.7675 19.9557 14.9405 19.884C15.1135 19.8123 15.3004 19.7803 15.4874 19.7902C15.6744 19.8001 15.8568 19.8517 16.0212 19.9413L16.441 20.1713C18.7986 21.4551 21.3777 18.8746 20.0925 16.5184L19.8639 16.0986C19.7743 15.9342 19.7227 15.7518 19.7128 15.5648C19.7029 15.3778 19.7349 15.1909 19.8066 15.0179C19.8783 14.8449 19.9878 14.6902 20.127 14.565C20.2663 14.4398 20.4318 14.3473 20.6114 14.2944L21.07 14.1593C23.6433 13.4017 23.6433 9.75309 21.07 8.99548L20.6114 8.86035C20.4318 8.80744 20.2663 8.715 20.127 8.58982C19.9878 8.46463 19.8783 8.30987 19.8066 8.13687C19.7349 7.96387 19.7029 7.77703 19.7128 7.59003C19.7227 7.40303 19.7743 7.22062 19.8639 7.05617L20.0939 6.6364C21.3777 4.27875 18.7972 1.70115 16.441 2.98492L16.0212 3.21349C15.8568 3.30306 15.6744 3.3547 15.4874 3.36461C15.3004 3.37452 15.1135 3.34247 14.9405 3.27079C14.7675 3.19911 14.6128 3.08962 14.4876 2.95036C14.3624 2.81109 14.27 2.64558 14.217 2.46595L14.0819 2.00736ZM10.2967 2.41419C10.6504 1.21381 12.3496 1.21381 12.7033 2.41419L12.8384 2.87279C12.952 3.25818 13.1504 3.61327 13.4191 3.91202C13.6877 4.21077 14.0199 4.4456 14.3911 4.5993C14.7623 4.753 15.1633 4.82168 15.5645 4.80029C15.9657 4.7789 16.357 4.668 16.7098 4.4757L17.1282 4.24568C18.2265 3.64908 19.4283 4.84947 18.8303 5.94923L18.6017 6.369C18.4097 6.72183 18.2991 7.11314 18.2779 7.51427C18.2567 7.9154 18.3256 8.31618 18.4794 8.68724C18.6333 9.0583 18.8682 9.39025 19.1669 9.65875C19.4657 9.92725 19.8207 10.1255 20.206 10.239L20.6632 10.3741C21.8636 10.7278 21.8636 12.427 20.6632 12.7807L20.2046 12.9158C19.8192 13.0294 19.4641 13.2278 19.1654 13.4965C18.8666 13.7651 18.6318 14.0973 18.4781 14.4685C18.3244 14.8397 18.2557 15.2406 18.2771 15.6419C18.2985 16.0431 18.4094 16.4344 18.6017 16.7872L18.8317 17.2056C19.4283 18.3039 18.2279 19.5057 17.1282 18.9077L16.7098 18.6791C16.3569 18.4868 15.9655 18.376 15.5642 18.3547C15.1629 18.3334 14.7619 18.4022 14.3907 18.556C14.0194 18.7099 13.6873 18.9449 13.4187 19.2438C13.1501 19.5427 12.9518 19.8979 12.8384 20.2834L12.7033 20.7406C12.3496 21.941 10.6504 21.941 10.2967 20.7406L10.1616 20.282C10.048 19.8968 9.84958 19.5419 9.58101 19.2433C9.31243 18.9447 8.98047 18.71 8.60942 18.5563C8.23838 18.4026 7.83766 18.3339 7.43661 18.3551C7.03556 18.3764 6.64434 18.4871 6.29161 18.6791L5.87184 18.9091C4.77352 19.5057 3.57169 18.3053 4.16973 17.2056L4.39831 16.7872C4.59087 16.4344 4.702 16.0429 4.72353 15.6415C4.74506 15.2401 4.67644 14.839 4.52272 14.4676C4.369 14.0962 4.13407 13.7639 3.83517 13.4951C3.53627 13.2263 3.18099 13.0279 2.79539 12.9144L2.3368 12.7792C1.13641 12.4256 1.13641 10.7263 2.3368 10.3727L2.79539 10.2376C3.18039 10.1239 3.53509 9.92552 3.83354 9.65704C4.13199 9.38857 4.36663 9.05676 4.52029 8.6859C4.67395 8.31505 4.74275 7.91452 4.72164 7.51364C4.70054 7.11276 4.59006 6.72168 4.39831 6.369L4.16829 5.94923C3.57169 4.85091 4.77208 3.64908 5.87184 4.24712L6.29161 4.4757C6.64434 4.66773 7.03556 4.77842 7.43661 4.79966C7.83766 4.82091 8.23838 4.75218 8.60942 4.59849C8.98047 4.44481 9.31243 4.21007 9.58101 3.91147C9.84958 3.61288 10.048 3.25798 10.1616 2.87279L10.2967 2.41419Z" fill="white"/>
</svg>
